HIERARCHY
ROOT newVegas:Hips
{
	OFFSET 0.000000 96.479958 0.000000
	CHANNELS 6 Xposition Yposition Zposition Xrotation Yrotation Zrotation
	JOINT newVegas:Pelvis
	{
		OFFSET 0.000000 0.000000 0.000000
		CHANNELS 3 Xrotation Yrotation Zrotation
		JOINT newVegas:LeftUpLeg
		{
			OFFSET 18.735201 -5.666702 -4.541200
			CHANNELS 3 Xrotation Yrotation Zrotation
			JOINT newVegas:LeftLeg
			{
				OFFSET -0.021200 -31.938179 0.493100
				CHANNELS 3 Xrotation Yrotation Zrotation
				JOINT newVegas:LeftFoot
				{
					OFFSET 0.021200 -31.938179 -4.336299
					CHANNELS 3 Xrotation Yrotation Zrotation
					JOINT newVegas:LeftToeBase
					{
						OFFSET 0.943001 -26.722000 15.023500
						CHANNELS 3 Xrotation Yrotation Zrotation
						End Site
						{
							OFFSET 0.000000 30.670183 0.000000
						}
					}
				}
				JOINT newVegas:Left_PantLeg
				{
					OFFSET 0.663870 -9.044666 -1.108900
					CHANNELS 3 Xrotation Yrotation Zrotation
					End Site
					{
						OFFSET 1.415995 20.635357 0.000000
					}
				}
			}
		}
		JOINT newVegas:RightUpLeg
		{
			OFFSET -18.735201 -5.666702 -4.541200
			CHANNELS 3 Xrotation Yrotation Zrotation
			JOINT newVegas:RightLeg
			{
				OFFSET 0.018946 -31.938133 0.493100
				CHANNELS 3 Xrotation Yrotation Zrotation
				JOINT newVegas:RightFoot
				{
					OFFSET -0.018946 -31.938126 -4.336299
					CHANNELS 3 Xrotation Yrotation Zrotation
					JOINT newVegas:RightToeBase
					{
						OFFSET -0.943001 -26.722004 15.023500
						CHANNELS 3 Xrotation Yrotation Zrotation
						End Site
						{
							OFFSET 0.000000 30.670187 0.000000
						}
					}
				}
				JOINT newVegas:Right_PantLeg
				{
					OFFSET -0.661674 -9.044716 -1.108900
					CHANNELS 3 Xrotation Yrotation Zrotation
					End Site
					{
						OFFSET -1.415958 20.635269 0.000000
					}
				}
			}
		}
	}
	JOINT newVegas:Spine
	{
		OFFSET 0.000000 10.199997 -0.299500
		CHANNELS 3 Xrotation Yrotation Zrotation
		JOINT newVegas:Spine1
		{
			OFFSET 0.000000 11.900002 -1.516600
			CHANNELS 3 Xrotation Yrotation Zrotation
			JOINT newVegas:Spine2
			{
				OFFSET 0.000000 13.600006 -2.842500
				CHANNELS 3 Xrotation Yrotation Zrotation
				JOINT newVegas:Neck
				{
					OFFSET 0.000000 9.624100 -2.890100
					CHANNELS 3 Xrotation Yrotation Zrotation
					JOINT newVegas:Head
					{
						OFFSET 0.000000 14.068802 -1.351900
						CHANNELS 3 Xrotation Yrotation Zrotation
						JOINT newVegas:Hair_Back
						{
							OFFSET 0.000000 3.231903 -17.524799
							CHANNELS 3 Xrotation Yrotation Zrotation
							End Site
							{
								OFFSET 0.000000 19.849884 0.000000
							}
						}
						JOINT newVegas:Hair_Front
						{
							OFFSET 0.000000 31.260406 4.573800
							CHANNELS 3 Xrotation Yrotation Zrotation
							JOINT newVegas:Hair_Front1
							{
								OFFSET 0.000000 2.284103 11.993300
								CHANNELS 3 Xrotation Yrotation Zrotation
								JOINT newVegas:Hair_Front2
								{
									OFFSET 0.000000 2.284103 11.993300
									CHANNELS 3 Xrotation Yrotation Zrotation
									End Site
									{
										OFFSET 0.000000 12.208862 0.000000
									}
								}
							}
						}
						JOINT newVegas:Jowel
						{
							OFFSET 0.000000 -7.458206 6.864100
							CHANNELS 3 Xrotation Yrotation Zrotation
							End Site
							{
								OFFSET 0.000000 19.849884 0.000000
							}
						}
					}
				}
				JOINT newVegas:LeftShoulder
				{
					OFFSET 15.263000 10.923401 -0.547700
					CHANNELS 3 Xrotation Yrotation Zrotation
					JOINT newVegas:LeftArm
					{
						OFFSET 25.438599 -2.830597 -13.032500
						CHANNELS 3 Xrotation Yrotation Zrotation
						JOINT newVegas:LeftForeArm
						{
							OFFSET 29.960503 0.000000 0.000000
							CHANNELS 3 Xrotation Yrotation Zrotation
							JOINT newVegas:LeftHand
							{
								OFFSET 27.849251 0.000000 0.000000
								CHANNELS 3 Xrotation Yrotation Zrotation
								JOINT newVegas:LeftHandThumb1
								{
									OFFSET 4.487587 -3.305161 6.305391
									CHANNELS 3 Xrotation Yrotation Zrotation
									JOINT newVegas:LeftHandThumb2
									{
										OFFSET 5.480453 -3.164139 3.164143
										CHANNELS 3 Xrotation Yrotation Zrotation
										JOINT newVegas:LeftHandThumb3
										{
											OFFSET 5.159721 -2.978973 2.978967
											CHANNELS 3 Xrotation Yrotation Zrotation
											End Site
											{
												OFFSET 2.494507 5.926697 1.738678
											}
										}
									}
								}
								JOINT newVegas:LeftHandIndex1
								{
									OFFSET 18.578728 -0.527832 5.208049
									CHANNELS 3 Xrotation Yrotation Zrotation
									JOINT newVegas:LeftHandIndex2
									{
										OFFSET 3.192009 0.000000 0.000000
										CHANNELS 3 Xrotation Yrotation Zrotation
										JOINT newVegas:LeftHandIndex3
										{
											OFFSET 3.835129 0.000000 0.000000
											CHANNELS 3 Xrotation Yrotation Zrotation
											End Site
											{
												OFFSET -0.034599 3.816971 0.371180
											}
										}
									}
								}
								JOINT newVegas:LeftHandMiddle1
								{
									OFFSET 18.476105 0.000000 0.000000
									CHANNELS 3 Xrotation Yrotation Zrotation
									JOINT newVegas:LeftHandMiddle2
									{
										OFFSET 3.324875 0.000000 0.000000
										CHANNELS 3 Xrotation Yrotation Zrotation
										JOINT newVegas:LeftHandMiddle3
										{
											OFFSET 4.596550 0.000000 0.000000
											CHANNELS 3 Xrotation Yrotation Zrotation
											End Site
											{
												OFFSET 0.057701 4.578827 0.399218
											}
										}
									}
								}
								JOINT newVegas:LeftHandRing1
								{
									OFFSET 17.732719 0.121887 -4.201567
									CHANNELS 3 Xrotation Yrotation Zrotation
									JOINT newVegas:LeftHandRing2
									{
										OFFSET 2.733170 0.000000 0.000000
										CHANNELS 3 Xrotation Yrotation Zrotation
										JOINT newVegas:LeftHandRing3
										{
											OFFSET 3.178268 0.000000 0.000000
											CHANNELS 3 Xrotation Yrotation Zrotation
											End Site
											{
												OFFSET 0.119102 3.170624 0.185394
											}
										}
									}
								}
								JOINT newVegas:LeftHandPinky1
								{
									OFFSET 15.989624 -0.606689 -7.535461
									CHANNELS 3 Xrotation Yrotation Zrotation
									JOINT newVegas:LeftHandPinky2
									{
										OFFSET 2.538986 0.000000 0.000000
										CHANNELS 3 Xrotation Yrotation Zrotation
										JOINT newVegas:LeftHandPinky3
										{
											OFFSET 2.593102 0.000000 0.000000
											CHANNELS 3 Xrotation Yrotation Zrotation
											End Site
											{
												OFFSET -0.150902 2.584198 0.152708
											}
										}
									}
								}
							}
							JOINT newVegas:Left_Sleeve
							{
								OFFSET 0.267448 -0.649796 0.577675
								CHANNELS 3 Xrotation Yrotation Zrotation
								End Site
								{
									OFFSET 0.000000 15.991241 0.000000
								}
							}
							JOINT newVegas:Left_CapeC
							{
								OFFSET 15.715958 -8.608795 -6.935905
								CHANNELS 3 Xrotation Yrotation Zrotation
								JOINT newVegas:Left_CapeC1
								{
									OFFSET 0.000000 -8.688499 0.000000
									CHANNELS 3 Xrotation Yrotation Zrotation
									End Site
									{
										OFFSET 0.000000 8.688499 0.000000
									}
								}
							}
						}
						JOINT newVegas:Left_CapeB
						{
							OFFSET 26.118385 -8.608795 -7.079235
							CHANNELS 3 Xrotation Yrotation Zrotation
							JOINT newVegas:Left_CapeB1
							{
								OFFSET 0.000000 -8.688499 0.000000
								CHANNELS 3 Xrotation Yrotation Zrotation
								End Site
								{
									OFFSET 0.000000 8.688499 0.000000
								}
							}
						}
						JOINT newVegas:Left_CapeA
						{
							OFFSET 5.115639 -8.608795 -10.395809
							CHANNELS 3 Xrotation Yrotation Zrotation
							JOINT newVegas:Left_CapeA1
							{
								OFFSET 0.000000 -8.688499 0.000000
								CHANNELS 3 Xrotation Yrotation Zrotation
								End Site
								{
									OFFSET 0.000000 8.688499 0.000000
								}
							}
						}
					}
				}
				JOINT newVegas:RightShoulder
				{
					OFFSET -15.263000 10.923401 -0.547700
					CHANNELS 3 Xrotation Yrotation Zrotation
					JOINT newVegas:RightArm
					{
						OFFSET -25.438599 -2.830597 -13.032500
						CHANNELS 3 Xrotation Yrotation Zrotation
						JOINT newVegas:RightForeArm
						{
							OFFSET -29.960503 0.000000 0.000000
							CHANNELS 3 Xrotation Yrotation Zrotation
							JOINT newVegas:RightHand
							{
								OFFSET -27.849251 0.000000 0.000000
								CHANNELS 3 Xrotation Yrotation Zrotation
								JOINT newVegas:RightHandThumb1
								{
									OFFSET -4.487587 -3.305161 6.305391
									CHANNELS 3 Xrotation Yrotation Zrotation
									JOINT newVegas:RightHandThumb2
									{
										OFFSET -5.480453 -3.164139 3.164143
										CHANNELS 3 Xrotation Yrotation Zrotation
										JOINT newVegas:RightHandThumb3
										{
											OFFSET -5.159721 -2.978973 2.978967
											CHANNELS 3 Xrotation Yrotation Zrotation
											End Site
											{
												OFFSET -2.494507 5.926697 1.738678
											}
										}
									}
								}
								JOINT newVegas:RightHandIndex1
								{
									OFFSET -18.578728 -0.527832 5.208049
									CHANNELS 3 Xrotation Yrotation Zrotation
									JOINT newVegas:RightHandIndex2
									{
										OFFSET -3.192009 0.000000 0.000000
										CHANNELS 3 Xrotation Yrotation Zrotation
										JOINT newVegas:RightHandIndex3
										{
											OFFSET -3.835129 0.000000 0.000000
											CHANNELS 3 Xrotation Yrotation Zrotation
											End Site
											{
												OFFSET 0.034599 3.816971 0.371180
											}
										}
									}
								}
								JOINT newVegas:RightHandMiddle1
								{
									OFFSET -18.476105 0.000000 0.000000
									CHANNELS 3 Xrotation Yrotation Zrotation
									JOINT newVegas:RightHandMiddle2
									{
										OFFSET -3.324875 0.000000 0.000000
										CHANNELS 3 Xrotation Yrotation Zrotation
										JOINT newVegas:RightHandMiddle3
										{
											OFFSET -4.596550 0.000000 0.000000
											CHANNELS 3 Xrotation Yrotation Zrotation
											End Site
											{
												OFFSET -0.057701 4.578827 0.399218
											}
										}
									}
								}
								JOINT newVegas:RightHandRing1
								{
									OFFSET -17.732719 0.121887 -4.201567
									CHANNELS 3 Xrotation Yrotation Zrotation
									JOINT newVegas:RightHandRing2
									{
										OFFSET -2.733170 0.000000 0.000000
										CHANNELS 3 Xrotation Yrotation Zrotation
										JOINT newVegas:RightHandRing3
										{
											OFFSET -3.178268 0.000000 0.000000
											CHANNELS 3 Xrotation Yrotation Zrotation
											End Site
											{
												OFFSET -0.119102 3.170624 0.185394
											}
										}
									}
								}
								JOINT newVegas:RightHandPinky1
								{
									OFFSET -15.989624 -0.606689 -7.535461
									CHANNELS 3 Xrotation Yrotation Zrotation
									JOINT newVegas:RightHandPinky2
									{
										OFFSET -2.538986 0.000000 0.000000
										CHANNELS 3 Xrotation Yrotation Zrotation
										JOINT newVegas:RightHandPinky3
										{
											OFFSET -2.593102 0.000000 0.000000
											CHANNELS 3 Xrotation Yrotation Zrotation
											End Site
											{
												OFFSET 0.150902 2.584198 0.152708
											}
										}
									}
								}
							}
							JOINT newVegas:Right_CapeC
							{
								OFFSET -15.715958 -8.608795 -6.935905
								CHANNELS 3 Xrotation Yrotation Zrotation
								JOINT newVegas:Right_CapeC1
								{
									OFFSET 0.000000 -8.688499 0.000000
									CHANNELS 3 Xrotation Yrotation Zrotation
									End Site
									{
										OFFSET 0.000000 8.688499 0.000000
									}
								}
							}
							JOINT newVegas:Right_Sleeve
							{
								OFFSET -0.267448 -0.649994 0.577675
								CHANNELS 3 Xrotation Yrotation Zrotation
								End Site
								{
									OFFSET 0.000000 15.991302 0.000000
								}
							}
						}
						JOINT newVegas:Right_CapeA
						{
							OFFSET -5.115540 -8.608795 -10.395824
							CHANNELS 3 Xrotation Yrotation Zrotation
							JOINT newVegas:Right_CapeA1
							{
								OFFSET 0.000000 -8.688499 0.000000
								CHANNELS 3 Xrotation Yrotation Zrotation
								End Site
								{
									OFFSET 0.000000 8.688499 0.000000
								}
							}
						}
						JOINT newVegas:Right_CapeB
						{
							OFFSET -26.118187 -8.608795 -7.079266
							CHANNELS 3 Xrotation Yrotation Zrotation
							JOINT newVegas:Right_CapeB1
							{
								OFFSET 0.000000 -8.688499 0.000000
								CHANNELS 3 Xrotation Yrotation Zrotation
								End Site
								{
									OFFSET 0.000000 8.688499 0.000000
								}
							}
						}
					}
				}
				JOINT newVegas:Left_Collar
				{
					OFFSET 18.625099 8.655502 8.828100
					CHANNELS 3 Xrotation Yrotation Zrotation
					JOINT newVegas:Left_Collar1
					{
						OFFSET 14.783401 10.540405 -1.259500
						CHANNELS 3 Xrotation Yrotation Zrotation
						End Site
						{
							OFFSET 0.000000 18.199875 0.000000
						}
					}
				}
				JOINT newVegas:Collar_Back
				{
					OFFSET 0.000000 15.630707 -20.132601
					CHANNELS 3 Xrotation Yrotation Zrotation
					End Site
					{
						OFFSET 0.000000 22.523010 0.000000
					}
				}
				JOINT newVegas:Left_Peck
				{
					OFFSET 17.239599 -5.132599 25.482599
					CHANNELS 3 Xrotation Yrotation Zrotation
					End Site
					{
						OFFSET 0.000000 22.523010 0.000000
					}
				}
				JOINT newVegas:Right_Peck
				{
					OFFSET -17.239599 -5.132202 25.482599
					CHANNELS 3 Xrotation Yrotation Zrotation
					End Site
					{
						OFFSET 0.000000 22.523010 0.000000
					}
				}
				JOINT newVegas:Right_Collar
				{
					OFFSET -18.625099 8.655792 8.828100
					CHANNELS 3 Xrotation Yrotation Zrotation
					JOINT newVegas:Right_Collar1
					{
						OFFSET -14.783401 10.539993 -1.259500
						CHANNELS 3 Xrotation Yrotation Zrotation
						End Site
						{
							OFFSET 0.000000 18.199631 0.000000
						}
					}
				}
			}
		}
		JOINT newVegas:Belly
		{
			OFFSET 0.000000 -6.540398 9.014299
			CHANNELS 3 Xrotation Yrotation Zrotation
			End Site
			{
				OFFSET 0.000000 11.566666 0.000000
			}
		}
	}
	JOINT newVegas:ElvisFacialAnim_Joint
	{
		OFFSET 1.000000 -95.330101 -8.825800
		CHANNELS 3 Xrotation Yrotation Zrotation
		End Site
		{
			OFFSET 0.000000 35.315800 0.000000
		}
	}
}
MOTION
Frames: 4
Frame Time: 0.016667
-0.102419 93.040787 4.119147 1.893974 -2.189136 -0.155982 -0.000000 -0.000000 0.000000 -9.661829 -5.894693 11.736488 20.863354 -0.893526 -1.863543 -10.218830 15.306681 -10.557927 -0.000000 0.000000 0.000000 -0.000000 0.000000 -0.000001 -6.993035 -4.455426 -11.083423 19.820061 0.336294 0.177607 -12.883474 -11.623807 9.702397 -0.000000 0.000001 0.000000 -0.000002 -0.000000 -0.000000 2.070962 0.275704 0.912526 3.430435 -0.015269 0.185037 3.430500 0.005500 0.178976 -1.410903 -0.004787 -0.013036 -1.410901 -0.004785 -0.013040 0.000001 0.000000 -0.000000 -1.410900 -0.004799 -0.013033 -1.410831 -0.004778 -0.013038 -0.000001 0.000000 -0.000000 0.000001 0.000000 0.000000 0.742837 8.952360 -13.053725 10.737612 -6.254788 -54.002604 0.000006 -32.994264 0.000007 3.018203 -1.471485 -4.081433 -0.482878 3.821573 13.866291 21.372709 38.839840 0.020891 -0.000001 -0.000000 -0.000008 1.076655 5.650979 -31.107106 2.579638 4.853694 -55.959012 0.000000 -0.000001 0.000001 2.297568 7.098871 -41.286598 3.978829 5.544407 -71.308042 0.000001 0.000002 -0.000000 2.297565 7.098864 -41.286608 3.978843 5.544415 -71.308022 -0.000000 0.000001 0.000000 2.296096 7.100173 -41.286410 3.978822 5.544401 -71.308042 -0.000001 0.000000 -0.000000 0.000000 0.000001 -0.000001 0.000000 0.000001 -0.000001 0.000000 0.000001 -0.000002 0.000000 -0.000003 -0.000002 0.000000 -0.000003 -0.000002 0.000000 -0.000003 -0.000002 0.000000 -0.000003 -0.000002 1.078070 -8.352866 11.371669 3.407868 18.890958 61.317333 -0.000004 23.538775 0.000016 1.182697 -2.960228 -1.406723 -5.104756 0.227795 -17.972082 16.981324 -29.890902 7.725566 0.000003 -0.000003 0.000001 0.285280 -3.752864 14.876251 3.775972 -4.573221 79.081283 0.000001 0.000004 0.000001 1.456659 -5.863606 32.031603 4.654513 -4.657153 89.967361 -0.000000 0.000000 0.000000 1.456653 -5.863600 32.031610 4.654531 -4.657154 89.967361 -0.000000 -0.000001 -0.000002 1.456654 -5.863620 32.031606 4.654505 -4.657141 89.967361 0.000000 0.000003 0.000000 0.000001 0.000000 0.000000 -0.000000 -0.000001 -0.000001 0.000001 -0.000000 -0.000000 0.000000 0.000001 0.000001 0.000001 0.000001 0.000001 0.000000 0.000001 0.000001 0.000001 0.000001 0.000001 -0.000000 0.000000 -0.000000 -0.000000 0.000000 -0.000000 -0.000000 0.000000 -0.000000 -0.000000 0.000000 -0.000000 -0.000000 0.000000 -0.000000 -0.000000 0.000000 -0.000000 -0.000000 0.000000 -0.000000 -0.000000 0.000000 -0.000000 -0.000000 -0.000000 0.000000 
-0.230395 93.089317 4.085032 1.872845 -2.346221 0.141435 -0.000000 0.000000 -0.000000 -10.870167 -6.286315 11.528334 22.370816 -0.959042 -1.898578 -9.005628 15.389150 -11.102300 0.000000 0.000000 0.000000 -0.000000 -0.000000 -0.000001 -7.344645 -4.400224 -11.350234 20.328118 0.476333 0.167002 -13.079007 -11.562284 9.636850 -0.000000 -0.000000 -0.000000 0.000000 0.000000 -0.000000 2.291584 -0.020995 0.677267 3.107404 -0.084774 0.120758 3.107846 -0.065907 0.115675 -1.290490 0.012476 -0.009677 -1.290490 0.012475 -0.009676 0.000000 0.000000 -0.000000 -1.290490 0.012475 -0.009676 -1.290489 0.012475 -0.009676 -0.000001 0.000000 -0.000000 0.000000 0.000000 -0.000000 0.736511 8.806729 -13.031570 10.933039 -6.745925 -54.051030 -0.000003 -32.945284 -0.000015 3.215437 -1.441554 -4.145346 -1.226162 4.012608 13.215939 20.501574 38.197789 1.391571 0.000003 0.000000 -0.000010 1.051745 5.612609 -30.821249 2.451667 4.765046 -54.432783 0.000001 0.000002 -0.000000 2.190048 7.000213 -40.472744 3.756122 5.464378 -68.986557 0.000001 -0.000002 0.000000 2.198452 7.006899 -40.576282 3.751201 5.462487 -68.934798 -0.000000 0.000001 0.000000 2.205391 7.014871 -40.679668 3.756122 5.464357 -68.986550 -0.000000 -0.000003 -0.000001 0.000000 0.000000 0.000002 0.000000 0.000000 0.000002 0.000000 -0.000000 0.000002 0.000000 -0.000001 -0.000001 -0.000000 -0.000001 -0.000001 0.000000 -0.000001 -0.000001 0.000000 -0.000001 -0.000001 1.091566 -8.197193 11.485088 3.504186 18.923104 61.185982 -0.000001 23.701525 0.000015 1.551634 -2.868871 -1.163866 -5.642956 -0.147101 -17.426143 16.936673 -29.156951 6.578076 0.000002 -0.000003 0.000001 0.293418 -3.774310 15.343513 3.548772 -4.523631 76.217002 -0.000000 -0.000000 -0.000000 1.392280 -5.779173 31.586725 4.375141 -4.648629 86.524372 0.000000 0.000001 -0.000000 1.398791 -5.785300 31.693171 4.370831 -4.648365 86.471096 -0.000001 0.000001 -0.000002 1.399738 -5.794877 31.799021 4.375132 -4.648619 86.524372 -0.000000 -0.000000 0.000001 0.000001 -0.000002 0.000001 0.000001 -0.000002 0.000001 0.000001 -0.000002 0.000001 0.000000 -0.000001 -0.000001 0.000000 0.000000 -0.000001 0.000000 -0.000001 -0.000001 0.000000 -0.000000 -0.000001 -0.000000 0.000000 -0.000000 -0.000000 0.000000 -0.000000 -0.000000 0.000000 -0.000000 -0.000000 0.000000 -0.000000 -0.000000 0.000000 -0.000000 -0.000000 0.000000 -0.000000 -0.000000 0.000000 -0.000000 0.000000 -0.000000 0.000000 -0.000000 0.000000 -0.000000 
-0.459994 93.107193 4.065576 1.851749 -2.479147 0.450865 0.000000 0.000000 0.000000 -13.118737 -6.129482 11.653262 24.926311 -1.138788 -1.956295 -7.028662 14.584283 -12.102562 0.000000 0.000000 0.000000 -0.000001 0.000000 -0.000001 -7.808913 -4.308873 -11.551446 21.157535 0.615043 0.167254 -13.496884 -11.539686 9.467999 -0.000000 -0.000000 -0.000000 0.000000 0.000001 -0.000000 2.558841 -0.384147 0.436960 2.747828 -0.169165 0.053065 2.748702 -0.152292 0.049086 -1.155663 0.032841 -0.005693 -1.155653 0.032839 -0.005692 0.000000 -0.000000 0.000000 -1.155662 0.032840 -0.005692 -1.155659 0.032839 -0.005692 0.000000 0.000000 -0.000000 0.000000 -0.000000 0.000000 0.729838 8.654329 -13.018119 11.156659 -7.294853 -54.080663 0.000004 -32.921044 0.000007 3.429489 -1.421112 -4.175561 -2.021783 4.232565 12.518354 19.606039 37.444521 2.843508 -0.000003 0.000001 -0.000008 1.025027 5.570827 -30.510114 2.320105 4.668501 -52.832985 -0.000000 0.000001 0.000002 2.077967 6.892790 -39.613236 3.527046 5.371178 -66.560726 0.000000 -0.000002 -0.000000 2.094707 6.906822 -39.824330 3.517196 5.366910 -66.455248 -0.000000 -0.000001 0.000000 2.110021 6.922085 -40.035212 3.527052 5.371163 -66.560713 0.000000 -0.000002 -0.000000 -0.000001 0.000002 0.000000 -0.000001 0.000002 0.000000 -0.000002 0.000003 0.000000 0.000000 -0.000002 -0.000001 0.000001 -0.000003 -0.000001 0.000000 -0.000002 -0.000001 -0.000000 -0.000003 -0.000000 1.096787 -8.002334 11.568712 3.614130 18.945278 61.044638 -0.000002 23.957203 0.000020 1.916265 -2.796680 -0.913620 -6.220036 -0.561328 -16.846223 16.880374 -28.337806 5.350619 0.000001 0.000000 0.000001 0.301833 -3.796168 15.831031 3.306238 -4.457341 73.119962 0.000001 -0.000001 -0.000001 1.323357 -5.686531 31.092855 4.074441 -4.620639 82.804282 -0.000001 -0.000002 -0.000001 1.336524 -5.699505 31.313767 4.065553 -4.619505 82.693756 -0.000000 0.000001 -0.000000 1.339902 -5.718456 31.533730 4.074446 -4.620628 82.804296 0.000000 0.000002 -0.000000 -0.000001 0.000000 -0.000001 -0.000001 -0.000000 -0.000001 -0.000001 -0.000000 -0.000002 0.000002 0.000002 0.000001 0.000002 0.000002 -0.000000 0.000002 0.000002 0.000001 0.000002 0.000002 0.000001 -0.000000 -0.000000 0.000000 -0.000000 -0.000000 0.000000 -0.000000 -0.000000 0.000000 -0.000000 -0.000000 0.000000 -0.000000 -0.000000 0.000000 -0.000000 -0.000000 0.000000 -0.000000 -0.000000 0.000000 0.000000 -0.000000 0.000000 0.000000 0.000000 0.000000 
-0.789282 93.103142 4.073233 1.831052 -2.605053 0.749211 -0.000000 0.000000 -0.000000 -17.903200 -5.588475 10.710882 31.188484 -0.466579 -1.919207 -5.231181 13.014441 -10.706714 0.000000 -0.000001 0.000000 0.000001 -0.000000 -0.000000 -8.313571 -4.188841 -11.649632 22.174627 0.760685 0.174376 -14.080991 -11.560272 9.183415 0.000000 0.000001 -0.000000 0.000000 -0.000000 -0.000000 2.848420 -0.778685 0.206766 2.373875 -0.260962 -0.016101 2.375220 -0.246129 -0.018902 -1.013716 0.054705 -0.001170 -1.013712 0.054706 -0.001171 0.000000 -0.000000 0.000000 -1.013716 0.054703 -0.001170 -1.013717 0.054707 -0.001171 0.000000 0.000000 -0.000000 0.000000 -0.000000 0.000000 0.723122 8.496003 -13.005180 11.389999 -7.878151 -54.103984 -0.000008 -32.909019 -0.000011 3.676865 -1.401124 -4.194166 -2.847525 4.478030 11.792763 18.719733 36.603872 4.328845 0.000001 -0.000003 -0.000005 0.997331 5.526788 -30.182924 2.187625 4.565367 -51.187203 -0.000000 0.000001 0.000002 1.964226 6.778779 -38.725226 3.296135 5.265503 -64.069825 -0.000000 0.000000 -0.000000 1.989082 6.800751 -39.046293 3.281444 5.258367 -63.909486 -0.000000 -0.000001 0.000000 2.012551 6.823843 -39.367185 3.296129 5.265496 -64.069838 0.000000 -0.000002 -0.000000 -0.000001 -0.000001 -0.000001 -0.000001 -0.000001 -0.000001 -0.000002 -0.000001 -0.000001 -0.000000 -0.000002 -0.000001 0.000000 -0.000002 -0.000001 -0.000000 -0.000002 -0.000001 -0.000000 -0.000002 -0.000001 1.096976 -7.781049 11.642711 3.743083 18.979036 60.878856 -0.000002 24.271407 0.000027 2.271884 -2.732256 -0.657001 -6.820224 -1.005241 -16.249175 16.817223 -27.461880 4.075801 0.000000 -0.000003 -0.000003 0.310435 -3.818224 16.330794 3.056560 -4.374041 69.877821 0.000000 0.000000 0.000000 1.252318 -5.588255 30.568163 3.762430 -4.570584 78.911484 0.000000 0.000001 -0.000000 1.272043 -5.608651 30.908532 3.748875 -4.567915 78.741166 0.000000 -0.000001 -0.000001 1.278696 -5.636935 31.247644 3.762421 -4.570579 78.911484 0.000000 -0.000000 -0.000000 -0.000000 -0.000001 -0.000000 -0.000001 0.000001 0.000000 -0.000000 -0.000001 -0.000000 0.000000 0.000000 -0.000001 0.000000 0.000000 -0.000001 0.000000 0.000000 -0.000001 0.000000 -0.000000 0.000000 0.000000 0.000000 -0.000000 0.000000 0.000000 -0.000000 0.000000 0.000000 -0.000000 0.000000 0.000000 -0.000000 0.000000 0.000000 -0.000000 0.000000 0.000000 -0.000000 0.000000 0.000000 -0.000000 -0.000000 -0.000000 -0.000000 -0.000000 0.000000 -0.000000 
